<svg width="25" height="24" viewBox="0 0 25 24" fill="none" xmlns="http://www.w3.org/2000/svg">
<path fill-rule="evenodd" clip-rule="evenodd" d="M5.5 3.5V6.17729C5.5 6.46523 5.56197 6.74506 5.67705 7H19.323C19.438 6.74506 19.5 6.46523 19.5 6.17729V3.5C19.5 3.22386 19.2761 3 19 3H6C5.72386 3 5.5 3.22386 5.5 3.5ZM19.2522 7.14162L12.5 11L5.74784 7.14162C5.89746 7.41349 6.11043 7.6508 6.37462 7.83062L12.0866 11.7186C12.1766 11.5866 12.3282 11.5 12.5 11.5C12.6718 11.5 12.8234 11.5866 12.9134 11.7186L18.6254 7.83062C18.8896 7.6508 19.1025 7.41349 19.2522 7.14162ZM12 12.3403L6.37462 16.1694C5.82746 16.5418 5.5 17.1608 5.5 17.8227V20.5C5.5 20.7761 5.72386 21 6 21H7.65C7.56716 21 7.5 20.9328 7.5 20.85V19.2831C7.5 19.1075 7.59215 18.9447 7.74275 18.8543L12 16.3V12.3403ZM17.35 21H19C19.2761 21 19.5 20.7761 19.5 20.5V17.8227C19.5 17.1608 19.1725 16.5418 18.6254 16.1694L13 12.3403V16.3L17.2572 18.8543C17.4079 18.9447 17.5 19.1075 17.5 19.2831V20.85C17.5 20.9328 17.4328 21 17.35 21Z" fill="#04C357"/>
<path d="M12.5 12L18.6254 16.1694C19.1725 16.5418 19.5 17.1608 19.5 17.8227V20.5C19.5 20.7761 19.2761 21 19 21H6C5.72386 21 5.5 20.7761 5.5 20.5V17.8227C5.5 17.1608 5.82746 16.5418 6.37462 16.1694L12.5 12ZM12.5 12L18.6254 7.83062C19.1725 7.45819 19.5 6.83917 19.5 6.17729V3.5C19.5 3.22386 19.2761 3 19 3H6C5.72386 3 5.5 3.22386 5.5 3.5V6.17729C5.5 6.83917 5.82746 7.45819 6.37462 7.83062L12.5 12Z" stroke="#04C357" stroke-width="2" stroke-linecap="round" stroke-linejoin="round"/>
</svg>
