<svg width="77" height="77" viewBox="0 0 77 77" fill="none" xmlns="http://www.w3.org/2000/svg">
<path d="M38.506 76.5628C59.5705 76.5628 76.6468 59.4903 76.6468 38.4304C76.6468 17.3704 59.5705 0.297974 38.506 0.297974C17.4414 0.297974 0.365234 17.3704 0.365234 38.4304C0.365234 59.4903 17.4414 76.5628 38.506 76.5628Z" fill="#050409"/>
<mask id="mask0_45_1081" style="mask-type:luminance" maskUnits="userSpaceOnUse" x="0" y="0" width="77" height="77">
<path d="M38.506 76.5628C59.5705 76.5628 76.6468 59.4903 76.6468 38.4304C76.6468 17.3704 59.5705 0.297974 38.506 0.297974C17.4414 0.297974 0.365234 17.3704 0.365234 38.4304C0.365234 59.4903 17.4414 76.5628 38.506 76.5628Z" fill="white"/>
</mask>
<g mask="url(#mask0_45_1081)">
<path d="M70.4947 24.0767L66.1723 29.1172L55.6071 19.5178L45.0489 29.1172L38.5618 22.6385L34.0019 34.4022L21.0346 32.4823L23.9186 46.6406L12.1523 51.6811L20.078 66.8028L17.6758 69.9235V81.2054L71.6958 83.607L83.9368 36.5594L70.4947 24.0767Z" fill="#F7573E"/>
<mask id="mask1_45_1081" style="mask-type:luminance" maskUnits="userSpaceOnUse" x="12" y="19" width="72" height="65">
<path d="M70.4947 24.0767L66.1723 29.1172L55.6071 19.5178L45.0489 29.1172L38.5618 22.6385L34.0019 34.4022L21.0346 32.4823L23.9186 46.6406L12.1523 51.6811L20.078 66.8028L17.6758 69.9235V81.2054L71.6958 83.607L83.9368 36.5594L70.4947 24.0767Z" fill="white"/>
</mask>
<g mask="url(#mask1_45_1081)">
<path d="M38.8621 48.686L44.4484 51.5624" stroke="#28272B" stroke-width="2" stroke-miterlimit="10" stroke-linecap="round"/>
<path d="M57.234 48.9443L51.6477 51.5624" stroke="#28272B" stroke-width="2" stroke-miterlimit="10" stroke-linecap="round"/>
<path d="M44.9512 59.2907C44.9512 59.2907 45.9148 57.0427 48.9664 57.2033C51.0752 57.315 51.9062 58.7322 52.1157 59.3605C52.1995 59.6119 52.0249 59.8702 51.7595 59.8911C51.2847 59.926 50.2233 59.57 48.6591 59.5211C46.0056 59.4373 44.7836 60.1285 44.9512 59.2907Z" fill="#28272B"/>
</g>
</g>
</svg>
