<svg width="77" height="77" viewBox="0 0 77 77" fill="none" xmlns="http://www.w3.org/2000/svg">
<path d="M38.8568 76.6359C59.9214 76.6359 76.9976 59.5634 76.9976 38.5035C76.9976 17.4435 59.9214 0.371094 38.8568 0.371094C17.7923 0.371094 0.716064 17.4435 0.716064 38.5035C0.716064 59.5634 17.7923 76.6359 38.8568 76.6359Z" fill="#050409"/>
<mask id="mask0_45_1109" style="mask-type:luminance" maskUnits="userSpaceOnUse" x="0" y="0" width="77" height="77">
<path d="M38.8568 76.6359C59.9214 76.6359 76.9976 59.5634 76.9976 38.5035C76.9976 17.4435 59.9214 0.371094 38.8568 0.371094C17.7923 0.371094 0.716064 17.4435 0.716064 38.5035C0.716064 59.5634 17.7923 76.6359 38.8568 76.6359Z" fill="white"/>
</mask>
<g mask="url(#mask0_45_1109)">
<path d="M70.3917 87.841H7.32886L22.7821 20.7009H54.9315L70.3917 87.841Z" fill="#FECC54"/>
</g>
<path d="M29.9675 43.7117H35.5539" stroke="#28272B" stroke-width="2" stroke-miterlimit="10" stroke-linecap="round"/>
<path d="M48.3398 43.7117H42.7534" stroke="#28272B" stroke-width="2" stroke-miterlimit="10" stroke-linecap="round"/>
<path d="M34.9324 53.4159L39.2408 50.6792L43.2421 53.4159" stroke="#28272B" stroke-width="2" stroke-miterlimit="10" stroke-linecap="round"/>
</svg>
