<svg width="276" height="60" viewBox="0 0 276 60" fill="none" xmlns="http://www.w3.org/2000/svg">
<rect y="12" width="276" height="48" rx="10" fill="#050409"/>
<path fill-rule="evenodd" clip-rule="evenodd" d="M17.0717 33C19.3453 29.062 20.4821 27.0931 21.9663 26.4323C23.2608 25.8559 24.7391 25.8559 26.0336 26.4323C27.5178 27.0931 28.6546 29.062 30.9281 33C33.2017 36.938 34.3385 38.9069 34.1687 40.5226C34.0206 41.9319 33.2814 43.2122 32.135 44.0451C30.8207 45 28.5471 45 23.9999 45C19.4528 45 17.1792 45 15.8649 44.0451C14.7184 43.2122 13.9793 41.9319 13.8312 40.5226C13.6614 38.9069 14.7981 36.938 17.0717 33ZM23.9999 30.25C24.4141 30.25 24.7499 30.5858 24.7499 31V37C24.7499 37.4142 24.4141 37.75 23.9999 37.75C23.5857 37.75 23.2499 37.4142 23.2499 37V31C23.2499 30.5858 23.5857 30.25 23.9999 30.25ZM23.9999 41C24.5522 41 24.9999 40.5523 24.9999 40C24.9999 39.4477 24.5522 39 23.9999 39C23.4476 39 22.9999 39.4477 22.9999 40C22.9999 40.5523 23.4476 41 23.9999 41Z" fill="#F2AE30"/>
<path d="M59.3768 27.7441V34.3359H61.7498V35.7422H59.3768V43.4941H57.7068V27.7441H59.3768ZM46.8436 39.2051C48.0828 39.2051 49.5242 39.2051 51.0271 39.1523V37.5527C49.2518 37.3066 48.0916 36.2344 48.1092 34.7051C48.0916 32.9297 49.6209 31.752 51.8709 31.752C54.1033 31.752 55.6502 32.9297 55.6678 34.7051C55.6502 36.2344 54.4725 37.3154 52.6971 37.5703V39.082C54.0945 39.0293 55.5008 38.915 56.8103 38.7305L56.9158 39.9609C53.5057 40.5762 49.8143 40.5938 47.1072 40.5938L46.8436 39.2051ZM56.5818 29.6074V30.9434H47.1424V29.6074H51.0271V27.7793H52.6971V29.6074H56.5818ZM51.8709 33.0527C50.5525 33.0527 49.6736 33.7031 49.6736 34.7051C49.6736 35.707 50.5525 36.3223 51.8709 36.3223C53.1893 36.3223 54.0682 35.707 54.0682 34.7051C54.0682 33.7031 53.1893 33.0527 51.8709 33.0527ZM70.1768 29.0801V30.416H73.6045V27.7617H75.2744V39.2402H73.6045V35.1621H70.1768V36.5332H62.8643V29.0801H70.1768ZM64.5166 30.4336V35.2148H68.542V30.4336H64.5166ZM75.626 41.8066V43.1602H64.9912V38.1855H66.6787V41.8066H75.626ZM70.1768 33.791H73.6045V31.7871H70.1768V33.791ZM94.2377 27.7441V43.5293H92.5678V27.7441H94.2377ZM85.8178 28.9219C88.1557 28.9219 89.8783 31.0664 89.8783 34.4414C89.8783 37.834 88.1557 39.9785 85.8178 39.9785C83.4447 39.9785 81.7396 37.834 81.7396 34.4414C81.7396 31.0664 83.4447 28.9219 85.8178 28.9219ZM85.8178 30.416C84.3588 30.416 83.3568 31.9629 83.3568 34.4414C83.3568 36.9375 84.3588 38.4844 85.8178 38.4844C87.2592 38.4844 88.2611 36.9375 88.2611 34.4414C88.2611 31.9629 87.2592 30.416 85.8178 30.416ZM104.299 28.4824V29.8184H98.6568V31.2773H104.001V32.5605H98.6568V34.125C101.628 34.1162 103.306 34.0547 105.337 33.7383L105.495 35.0566C103.315 35.4082 101.504 35.4785 98.2174 35.4785H96.9869V28.4824H104.299ZM108.676 27.7441V31.0664H110.962V32.4375H108.676V35.9355H107.006V27.7441H108.676ZM108.676 36.6562V40.5234H100.169V42.0352H109.221V43.3359H98.5338V39.293H107.024V37.9746H98.4986V36.6562H108.676ZM121.136 31.752C121.118 34.6348 122.858 37.5176 125.302 38.6074L124.3 39.9258C122.489 39.0645 121.057 37.2979 120.327 35.1445C119.589 37.4473 118.139 39.3545 116.249 40.2773L115.229 38.8711C117.708 37.7637 119.448 34.7578 119.448 31.752V29.0625H121.136V31.752ZM128.396 27.7441V43.5293H126.726V27.7441H128.396ZM142.595 29.3438C142.578 33.9844 141.154 38.1152 135.406 40.9453L134.492 39.6973C137.339 38.2998 139.036 36.6035 139.976 34.5996L134.826 35.0918L134.579 33.6504L140.486 33.2461C140.723 32.4463 140.864 31.5938 140.925 30.6973H135.406V29.3438H142.595ZM146.673 27.7441V34.0371H149.117V35.4082H146.673V43.4766H145.003V27.7441H146.673ZM163.907 35.6367V36.9902H157.667V40.0488H155.979V36.9902H149.493V35.6367H163.907ZM162.307 41.7891V43.1602H151.303V38.5371H152.973V41.7891H162.307ZM156.682 28.1133C160.075 28.1133 162.272 29.3438 162.272 31.3125C162.272 33.2812 160.075 34.4941 156.682 34.4941C153.307 34.4941 151.075 33.2812 151.075 31.3125C151.075 29.3438 153.307 28.1133 156.682 28.1133ZM156.682 29.4492C154.379 29.4492 152.85 30.1523 152.868 31.3125C152.85 32.4551 154.379 33.1406 156.682 33.1406C159.003 33.1406 160.514 32.4551 160.514 31.3125C160.514 30.1523 159.003 29.4492 156.682 29.4492ZM177.396 36.1289V37.4648H166.428V29.0449H177.238V30.3984H168.115V32.5254H176.904V33.8438H168.115V36.1289H177.396ZM179.031 40.1367V41.5078H164.617V40.1367H179.031ZM191.993 27.7441V34.0195H194.437V35.4082H191.993V43.4766H190.323V27.7441H191.993ZM187.88 29.3965C187.862 33.9492 185.858 38.0098 180.673 40.5762L179.741 39.2754C183.688 37.3066 185.832 34.459 186.175 30.7852H180.532V29.3965H187.88ZM213.136 35.0391V36.3926H206.773V37.9043C209.664 38.0625 211.378 39.0381 211.378 40.6816C211.378 42.4746 209.339 43.4766 205.947 43.459C202.519 43.4766 200.48 42.4746 200.48 40.6816C200.48 39.0381 202.194 38.0625 205.12 37.9043V36.3926H198.775V35.0391H213.136ZM205.947 39.1699C203.538 39.1699 202.167 39.7148 202.167 40.6816C202.167 41.6309 203.538 42.1934 205.947 42.1758C208.32 42.1934 209.708 41.6309 209.708 40.6816C209.708 39.7148 208.32 39.1699 205.947 39.1699ZM211.853 28.4648V29.8008H207.072C207.309 31.3213 209.524 32.6133 212.398 32.8945L211.8 34.2129C209.076 33.8965 206.817 32.7451 205.964 31.0664C205.085 32.7451 202.835 33.8965 200.111 34.2129L199.531 32.8945C202.361 32.6133 204.584 31.3213 204.822 29.8008H200.093V28.4648H211.853ZM226.256 27.7266V32.2969H228.559V33.6855H226.256V39.1348H224.587V27.7266H226.256ZM221.616 29.0801V30.4336H216.237V35.0215C219.304 35.0303 221.036 34.9336 223.004 34.5293L223.198 35.8828C221.071 36.3047 219.208 36.4102 215.833 36.4102H214.585V29.0801H221.616ZM226.924 41.8066V43.1602H216.272V37.957H217.942V41.8066H226.924ZM228.795 38.8008C229.762 38.792 230.974 38.7832 232.24 38.748V35.7598H229.586V29.291H236.318V30.6445H231.221V34.4062H236.459V35.7598H233.84V38.6777C234.929 38.6338 236.011 38.5635 236.951 38.4492L237.039 39.6621C234.455 40.1016 231.133 40.1719 229.023 40.1895L228.795 38.8008ZM242.523 27.7441V43.4941H240.924V35.5664H239.201V42.6855H237.654V28.0605H239.201V34.2129H240.924V27.7441H242.523ZM258.509 40.1367V41.5254H244.095V40.1367H247.54V36.0234C246.248 35.3115 245.466 34.1777 245.466 32.7715C245.466 30.293 247.892 28.6582 251.267 28.6582C254.659 28.6582 257.085 30.293 257.085 32.7715C257.085 34.1602 256.329 35.2764 255.063 35.9883V40.1367H258.509ZM251.267 29.9941C248.788 29.9941 247.083 31.0664 247.083 32.7715C247.083 34.459 248.788 35.5664 251.267 35.5664C253.728 35.5664 255.468 34.459 255.468 32.7715C255.468 31.0664 253.728 29.9941 251.267 29.9941ZM249.192 40.1367H253.376V36.6211C252.734 36.7881 252.022 36.8672 251.267 36.8672C250.528 36.8672 249.825 36.7881 249.192 36.6387V40.1367ZM262.102 29.2734L261.944 38.3262H260.203L260.045 29.2734H262.102ZM261.082 42.123C260.397 42.123 259.817 41.5605 259.834 40.875C259.817 40.1895 260.397 39.627 261.082 39.627C261.75 39.627 262.33 40.1895 262.33 40.875C262.33 41.5605 261.75 42.123 261.082 42.123Z" fill="white"/>
<path d="M138 0L144 12H132L138 0Z" fill="#050409"/>
</svg>
