<svg width="77" height="77" viewBox="0 0 77 77" fill="none" xmlns="http://www.w3.org/2000/svg">
<path d="M38.506 76.5626C59.5705 76.5626 76.6468 59.4902 76.6468 38.4302C76.6468 17.3703 59.5705 0.297852 38.506 0.297852C17.4414 0.297852 0.365234 17.3703 0.365234 38.4302C0.365234 59.4902 17.4414 76.5626 38.506 76.5626Z" fill="#050409"/>
<mask id="mask0_944_2383" style="mask-type:luminance" maskUnits="userSpaceOnUse" x="0" y="0" width="77" height="77">
<path d="M38.506 76.5626C59.5705 76.5626 76.6468 59.4902 76.6468 38.4302C76.6468 17.3703 59.5705 0.297852 38.506 0.297852C17.4414 0.297852 0.365234 17.3703 0.365234 38.4302C0.365234 59.4902 17.4414 76.5626 38.506 76.5626Z" fill="white"/>
</mask>
<g mask="url(#mask0_944_2383)">
<path d="M70.4947 24.0764L66.1723 29.117L55.6071 19.5176L45.0489 29.117L38.5618 22.6383L34.0019 34.4019L21.0346 32.482L23.9186 46.6403L12.1523 51.6809L20.078 66.8026L17.6758 69.9233V81.2052L71.6958 83.6068L83.9368 36.5592L70.4947 24.0764Z" fill="#F7573E"/>
<mask id="mask1_944_2383" style="mask-type:luminance" maskUnits="userSpaceOnUse" x="12" y="19" width="72" height="65">
<path d="M70.4947 24.0764L66.1723 29.117L55.6071 19.5176L45.0489 29.117L38.5618 22.6383L34.0019 34.4019L21.0346 32.482L23.9186 46.6403L12.1523 51.6809L20.078 66.8026L17.6758 69.9233V81.2052L71.6958 83.6068L83.9368 36.5592L70.4947 24.0764Z" fill="white"/>
</mask>
<g mask="url(#mask1_944_2383)">
<path d="M38.8613 48.6855L44.4477 51.5619" stroke="#28272B" stroke-width="2" stroke-miterlimit="10" stroke-linecap="round"/>
<path d="M57.2328 48.9443L51.6465 51.5624" stroke="#28272B" stroke-width="2" stroke-miterlimit="10" stroke-linecap="round"/>
<path d="M44.9507 59.29C44.9507 59.29 45.9143 57.042 48.9659 57.2025C51.0747 57.3142 51.9057 58.7315 52.1152 59.3598C52.199 59.6111 52.0244 59.8694 51.7591 59.8904C51.2842 59.9253 50.2228 59.5692 48.6586 59.5204C46.0051 59.4366 44.7831 60.1278 44.9507 59.29Z" fill="#28272B"/>
</g>
</g>
</svg>
