<svg width="16" height="16" viewBox="0 0 16 16" fill="none" xmlns="http://www.w3.org/2000/svg">
<g clip-path="url(#clip0_8_117)">
<path d="M14.2706 0.664456C14.2694 0.388317 14.0446 0.16546 13.7684 0.166692C13.4923 0.167924 13.2694 0.392778 13.2707 0.668918L13.2766 1.99273C13.2788 2.50471 13.2797 2.85721 13.2542 3.12619C11.9461 1.71656 10.0759 0.833354 7.99998 0.833354C4.04194 0.833354 0.833313 4.04198 0.833313 8.00002C0.833313 8.27616 1.05717 8.50002 1.33331 8.50002C1.60946 8.50002 1.83331 8.27616 1.83331 8.00002C1.83331 4.59426 4.59422 1.83335 7.99998 1.83335C9.83295 1.83335 11.4788 2.63249 12.609 3.90299C12.5762 3.90818 12.5405 3.91292 12.5018 3.91715C12.2275 3.9471 11.8651 3.94624 11.3255 3.94383L10.0016 3.93793C9.72551 3.9367 9.50065 4.15955 9.49942 4.43569C9.49819 4.71183 9.72105 4.93669 9.99719 4.93792L11.3499 4.94395C11.8531 4.94621 12.2729 4.9481 12.6103 4.91124C12.9643 4.87259 13.2905 4.7862 13.5739 4.56688C13.6958 4.47252 13.8053 4.36308 13.8996 4.24115C14.1189 3.95776 14.2053 3.63154 14.244 3.27759C14.2808 2.94013 14.2789 2.52042 14.2767 2.01718L14.2706 0.664456Z" fill="#04C357"/>
<path d="M15.1666 8.00002C15.1666 7.72388 14.9428 7.50002 14.6666 7.50002C14.3905 7.50002 14.1666 7.72388 14.1666 8.00002C14.1666 11.4058 11.4057 14.1667 7.99998 14.1667C6.14086 14.1667 4.47427 13.3446 3.34292 12.0424C3.37387 12.0376 3.40729 12.0332 3.44344 12.0293C3.71767 11.9993 4.08013 12.0002 4.61974 12.0026L5.94355 12.0085C6.21969 12.0097 6.44454 11.7869 6.44577 11.5107C6.44701 11.2346 6.22415 11.0097 5.94801 11.0085L4.59533 11.0025C4.09209 11.0002 3.67234 10.9983 3.33488 11.0352C2.98093 11.0738 2.65471 11.1602 2.37132 11.3795C2.24939 11.4739 2.13995 11.5834 2.04558 11.7053C1.82627 11.9887 1.73987 12.3149 1.70122 12.6688C1.66437 13.0063 1.66625 13.426 1.66851 13.9293L1.67455 15.282C1.67578 15.5581 1.90063 15.781 2.17677 15.7797C2.45291 15.7785 2.67577 15.5537 2.67454 15.2775L2.66863 13.9537C2.66633 13.4382 2.66544 13.0844 2.69147 12.8147C4.00194 14.2587 5.89518 15.1667 7.99998 15.1667C11.958 15.1667 15.1666 11.9581 15.1666 8.00002Z" fill="#04C357"/>
</g>
<defs>
<clipPath id="clip0_8_117">
<rect width="16" height="16" fill="white"/>
</clipPath>
</defs>
</svg>
