<svg width="22" height="23" viewBox="0 0 22 23" fill="none" xmlns="http://www.w3.org/2000/svg">
<circle cx="11" cy="11.5" r="10.5" transform="rotate(-90 11 11.5)" stroke="#04C357"/>
<circle cx="11" cy="11.5" r="10" fill="#28272B"/>
<path d="M11.0176 15.6172C9.25977 15.6172 8.00586 14.668 7.95898 13.2852H9.27148C9.31836 14.0352 10.0566 14.5039 11.0059 14.5039C12.0254 14.5039 12.7754 13.9414 12.7754 13.1211C12.7754 12.2891 12.0723 11.6797 10.8652 11.6797H10.1387V10.625H10.8652C11.8262 10.625 12.5059 10.0859 12.5059 9.27734C12.5059 8.50391 11.9316 7.97656 11.0293 7.97656C10.1738 7.97656 9.42383 8.44531 9.38867 9.21875H8.14648C8.18164 7.83594 9.45898 6.89844 11.041 6.89844C12.7051 6.89844 13.7598 7.95312 13.748 9.20703C13.7598 10.168 13.1621 10.8711 12.248 11.0938V11.1523C13.4082 11.3164 14.0762 12.0898 14.0762 13.168C14.0762 14.5859 12.7754 15.6172 11.0176 15.6172Z" fill="white"/>
</svg>
