<svg width="77" height="77" viewBox="0 0 77 77" fill="none" xmlns="http://www.w3.org/2000/svg">
<path d="M38.215 76.6359C59.2795 76.6359 76.3557 59.5634 76.3557 38.5035C76.3557 17.4435 59.2795 0.371094 38.215 0.371094C17.1504 0.371094 0.0742188 17.4435 0.0742188 38.5035C0.0742188 59.5634 17.1504 76.6359 38.215 76.6359Z" fill="#050409"/>
<mask id="mask0_944_2409" style="mask-type:luminance" maskUnits="userSpaceOnUse" x="0" y="0" width="77" height="77">
<path d="M38.215 76.6359C59.2795 76.6359 76.3557 59.5634 76.3557 38.5035C76.3557 17.4435 59.2795 0.371094 38.215 0.371094C17.1504 0.371094 0.0742188 17.4435 0.0742188 38.5035C0.0742188 59.5634 17.1504 76.6359 38.215 76.6359Z" fill="white"/>
</mask>
<g mask="url(#mask0_944_2409)">
<path d="M10.8555 68.4673C10.8555 68.4673 12.4266 19.0879 50.8257 19.0879C89.2249 19.0879 82.3956 79.0441 82.3956 79.0441L38.8151 85.2645L10.8555 68.4603" fill="#46B86F"/>
</g>
<path d="M40.2402 52.4521L40.9455 53.1363C43.0474 55.1819 46.3922 55.1819 48.4871 53.1363L49.1924 52.4521" stroke="black" stroke-width="2" stroke-miterlimit="10" stroke-linecap="round"/>
<path d="M40.2399 43.6693C41.3583 43.6693 42.2649 42.7629 42.2649 41.6447C42.2649 40.5266 41.3583 39.6201 40.2399 39.6201C39.1215 39.6201 38.2148 40.5266 38.2148 41.6447C38.2148 42.7629 39.1215 43.6693 40.2399 43.6693Z" fill="black"/>
<path d="M49.1852 43.6693C50.3036 43.6693 51.2103 42.7629 51.2103 41.6447C51.2103 40.5266 50.3036 39.6201 49.1852 39.6201C48.0668 39.6201 47.1602 40.5266 47.1602 41.6447C47.1602 42.7629 48.0668 43.6693 49.1852 43.6693Z" fill="black"/>
</svg>
