<svg width="344" height="164" viewBox="0 0 344 164" fill="none" xmlns="http://www.w3.org/2000/svg">
<g clip-path="url(#clip0_705_4471)">
<path d="M12.0106 0H344V24.023H12.0106C5.38384 24.023 0 18.6403 0 12.008C0 5.38266 5.38384 0 12.0106 0Z" fill="#28272B"/>
<path d="M12.0098 24.0229V88.5311C12.0098 92.4965 15.2219 95.7079 19.1882 95.7079H32.6862V82.5131H22.3515V24.0229" fill="#28272B"/>
<path d="M332.13 24.0229V88.5311C332.13 92.4965 328.917 95.7079 324.951 95.7079H311.453V82.5131H321.788V24.0299" fill="#28272B"/>
<path d="M44.9763 55.223L33.7617 69.4022L310.132 69.2346L298.722 54.1688C294.323 48.4999 288.345 45.3233 282.124 45.3513L61.4071 46.4054C55.2412 46.4334 49.3406 49.6029 44.9833 55.223H44.9763Z" fill="#1B1A1E"/>
<path d="M303.206 65.2341H40.9274C36.3766 65.2341 32.6875 68.9224 32.6875 73.4722V155.762C32.6875 160.312 36.3766 164 40.9274 164H303.206C307.757 164 311.446 160.312 311.446 155.762V73.4722C311.446 68.9224 307.757 65.2341 303.206 65.2341Z" fill="#28272B"/>
<path d="M24.4395 95.7009L32.6863 82.5061V95.7009H24.4395Z" fill="#1B1A1E"/>
<path d="M311.453 82.5061V95.7009L321.788 82.5061H311.453Z" fill="#1B1A1E"/>
</g>
<defs>
<clipPath id="clip0_705_4471">
<rect width="344" height="164" fill="white"/>
</clipPath>
</defs>
</svg>
