<svg width="21" height="22" viewBox="0 0 21 22" fill="none" xmlns="http://www.w3.org/2000/svg">
<mask id="path-1-outside-1_1_206" maskUnits="userSpaceOnUse" x="9" y="0.499999" width="12" height="18" fill="black">
<rect fill="white" x="9" y="0.499999" width="12" height="18"/>
<path d="M10 1.5C11.7554 1.5 13.4798 1.96206 15 2.83975C16.5202 3.71743 17.7826 4.97981 18.6603 6.5C19.5379 8.02019 20 9.74463 20 11.5C20 13.2554 19.5379 14.9798 18.6603 16.5L10 11.5L10 1.5Z"/>
</mask>
<path d="M10 1.5C11.7554 1.5 13.4798 1.96206 15 2.83975C16.5202 3.71743 17.7826 4.97981 18.6603 6.5C19.5379 8.02019 20 9.74463 20 11.5C20 13.2554 19.5379 14.9798 18.6603 16.5L10 11.5L10 1.5Z" stroke="#04C357" stroke-width="2" mask="url(#path-1-outside-1_1_206)"/>
<circle cx="10" cy="11.5" r="10" fill="#28272B"/>
<path d="M11.2832 7.01562V15.5H9.98242V8.30469H9.93555L7.9082 9.62891V8.39844L10.0176 7.01562H11.2832Z" fill="white"/>
</svg>
