<svg width="22" height="23" viewBox="0 0 22 23" fill="none" xmlns="http://www.w3.org/2000/svg">
<mask id="path-1-outside-1_1_252" maskUnits="userSpaceOnUse" x="-9.17939e-07" y="0.499999" width="22" height="22" fill="black">
<rect fill="white" x="-9.17939e-07" y="0.499999" width="22" height="22"/>
<path d="M11 1.5C12.7552 1.5 14.4795 1.96197 15.9995 2.83948C17.5196 3.717 18.782 4.97915 19.6597 6.49909C20.5375 8.01904 20.9997 9.74324 21 11.4984C21.0003 13.2536 20.5386 14.978 19.6613 16.4982C18.784 18.0184 17.5221 19.281 16.0023 20.1589C14.4825 21.0369 12.7583 21.4994 11.0031 21.5C9.24795 21.5006 7.52354 21.0391 6.00318 20.1621C4.48282 19.285 3.22007 18.0233 2.34184 16.5036L11 11.5L11 1.5Z"/>
</mask>
<path d="M11 1.5C12.7552 1.5 14.4795 1.96197 15.9995 2.83948C17.5196 3.717 18.782 4.97915 19.6597 6.49909C20.5375 8.01904 20.9997 9.74324 21 11.4984C21.0003 13.2536 20.5386 14.978 19.6613 16.4982C18.784 18.0184 17.5221 19.281 16.0023 20.1589C14.4825 21.0369 12.7583 21.4994 11.0031 21.5C9.24795 21.5006 7.52354 21.0391 6.00318 20.1621C4.48282 19.285 3.22007 18.0233 2.34184 16.5036L11 11.5L11 1.5Z" stroke="#04C357" stroke-width="2" mask="url(#path-1-outside-1_1_252)"/>
<circle cx="11" cy="11.5" r="10" fill="#28272B"/>
<path d="M8.18164 15.5V14.5625L11.123 11.5977C12.0488 10.625 12.5176 10.0859 12.5176 9.34766C12.5176 8.51562 11.8379 7.97656 10.9473 7.97656C10.0098 7.97656 9.40039 8.57422 9.40039 9.47656H8.18164C8.16992 7.92969 9.35352 6.89844 10.9707 6.89844C12.6113 6.89844 13.7363 7.92969 13.748 9.3125C13.7363 10.2617 13.291 11.0117 11.6973 12.582L9.97461 14.3281V14.3984H13.8887V15.5H8.18164Z" fill="white"/>
</svg>
